<?xml version="1.0" encoding="utf-8"?>
<!-- Generator: Adobe Illustrator 22.1.0, SVG Export Plug-In . SVG Version: 6.00 Build 0)  -->
<svg version="1.1" id="e4ebe004-ac85-4249-bdf7-a9685d9ba22f"
	 xmlns="http://www.w3.org/2000/svg" xmlns:xlink="http://www.w3.org/1999/xlink" x="0px" y="0px" viewBox="0 0 820 725.2"
	 style="enable-background:new 0 0 820 725.2;" xml:space="preserve">
<style type="text/css">
	.st0{fill:#F2F2F2;}
	.st1{fill:#3F3D56;}
	.st2{fill:#FFFFFF;}
	.st3{fill:none;stroke:#3F3D56;stroke-width:2;stroke-miterlimit:10;}
	.st4{opacity:0.1;enable-background:new    ;}
	.st5{fill:#E54203;}
	.st6{fill:#FFB9B9;}
	.st7{fill:#2F2E41;}
	.st8{opacity:5.000000e-02;enable-background:new    ;}
</style>
<title>voice interface</title>
<circle class="st0" cx="426.2" cy="350.3" r="350.3"/>
<path class="st1" d="M199.4,597.8c-22.6,34.6-16.4,78.6-16.4,78.6s42.8-12.1,65.3-46.7s16.4-78.6,16.4-78.6S222,563.2,199.4,597.8z"
	/>
<path class="st2" d="M182.9,676c0,0-0.5-0.1-1.6-0.3c-0.8-0.2-1.9-0.4-3.3-0.7c-12.1-2.9-44.3-12.5-65.4-37.9
	c-26.4-31.8-25.3-76.2-25.3-76.2s40.3,6.6,66.9,35.1c1.2,1.2,2.3,2.5,3.4,3.8c22.9,27.7,25.1,64.9,25.3,74.1
	C182.9,675.3,182.9,676,182.9,676z"/>
<path class="st3" d="M166.7,597.8c22.6,34.6,16.4,78.6,16.4,78.6s-42.8-12.1-65.3-46.7s-16.4-78.6-16.4-78.6
	S144.1,563.2,166.7,597.8z"/>
<path class="st4" d="M182.9,673.9c-0.6,0.7-1.1,1.3-1.6,1.8c-1,1.1-1.5,1.7-1.5,1.7s-0.7-0.8-1.8-2.4c-6.1-8.5-25.7-38.7-24.2-73.6
	c0.1-1.8,0.2-3.6,0.4-5.4c1.2,1.2,2.3,2.5,3.4,3.8C180.6,627.5,182.7,664.7,182.9,673.9z"/>
<path class="st2" d="M216.4,603.9c-1.8,41.3-32.4,73.5-32.4,73.5s-27.7-34.7-26-76s32.4-73.5,32.4-73.5S218.1,562.6,216.4,603.9z"/>
<line class="st3" x1="183.9" y1="676.2" x2="190.7" y2="529.6"/>
<ellipse class="st1" cx="410" cy="691.7" rx="410" ry="33.5"/>
<path class="st5" d="M475.2,290.1c-10.2,3.5-19.5,11.5-21.6,22.1c-1,4.9-0.4,10-1.2,14.9c-1.9,11.4-10.9,20.2-19.2,28.3
	s-16.8,17.5-17.4,29.1c-0.7,12.7,8.5,24.6,6.9,37.2c-1.8,14.6-17.3,24.1-21.1,38.4c-2.6,9.5,0.6,19.8,5.7,28.2
	c9.8,16,26.6,26.9,44.4,32.7s36.9,7.1,55.6,7.3c22.9,0.2,47.7-1.7,64.9-16.8c9.8-8.7,16-20.8,17.2-33.8c1.6-17.5-5.7-35.5-0.6-52.4
	c3.2-10.6,11.1-20.2,9.9-31.2c-1.2-10.7-10.5-18.4-17-27c-6-8.1-9.7-17.7-13.2-27.1l-12.2-32.3c-2.4-6.3-5-13-10.4-17.2
	c-10-7.8-26.1-6.3-37.9-4.7C497.2,287.3,485.6,286.6,475.2,290.1z"/>
<path class="st6" d="M479,384.1c0,0,5.4,17.6-35.2,37.9s4.1,42,4.1,42l47.4,10.8c0,0,48.8-6.8,54.2-14.9s14.9-35.2,12.2-39.3
	c-2-2.9-4.3-5.6-6.8-8.1c0,0-32.5-5.4-31.2-20.3S479,384.1,479,384.1z"/>
<path class="st4" d="M479,384.1c0,0,5.4,17.6-35.2,37.9s4.1,42,4.1,42l47.4,10.8c0,0,48.8-6.8,54.2-14.9s14.9-35.2,12.2-39.3
	c-2-2.9-4.3-5.6-6.8-8.1c0,0-32.5-5.4-31.2-20.3S479,384.1,479,384.1z"/>
<ellipse class="st6" cx="505.5" cy="368.6" rx="43.4" ry="43.4"/>
<path class="st2" d="M500.7,460c0,0-52.2-3.8-53.2-39.8c0,0-18.6-2.2-24,3.3s-23,9.5-23,23s29.8,54.2,29.8,54.2s16.3,54.2,9.5,63.7
	s-8.1,33.9-8.1,33.9s67.7-5.4,78.6,0s54.2,5.4,56.9,0s-2.7-73.2-2.7-73.2s12.2-16.3,9.5-35.2l32.5-37.9c0,0-12.2-36.6-31.2-36.6
	c0,0-25.7-6.8-26.4-3.4S561.6,453.2,500.7,460z"/>
<path class="st6" d="M378.7,579.2c0,0,12.2,19,43.4,23s36.6-6.8,33.9-9.5s-35.2-14.9-35.2-14.9l-19-14.9L378.7,579.2z"/>
<path class="st6" d="M600.9,563l-35.2,20.3c0,0-46.1-2.7-28.5,10.8s50.1,8.1,50.1,8.1l31.2-14.9L600.9,563z"/>
<path class="st7" d="M424.8,598.2c0,0-32.5,79.9,6.8,92.1s147.7,9.5,172.1-6.8s31.2-37.9,27.1-44.7s-31.2-25.7-50.1-27.1
	S424.8,598.2,424.8,598.2z"/>
<path class="st8" d="M424.8,598.2c0,0-32.5,79.9,6.8,92.1s147.7,9.5,172.1-6.8s31.2-37.9,27.1-44.7s-31.2-25.7-50.1-27.1
	S424.8,598.2,424.8,598.2z"/>
<path class="st7" d="M578.3,603.2c0,0,114.8-41.5,113.4,8.6s-73.2,63.7-73.2,63.7l-21.7,2.7l-119.2,4.1c0,0,4.1-21.7-5.4-24.4
	c0,0,31.2-8.1,32.5-9.5s78.6-28.5,84-29.8s21.7-12.2,33.9-10.8c0,0,13.5-10.8,28.5-8.1l-42,2.7L578.3,603.2z"/>
<path class="st4" d="M578.3,603.2c0,0,114.8-41.5,113.4,8.6s-73.2,63.7-73.2,63.7l-21.7,2.7l-119.2,4.1c0,0,4.1-21.7-5.4-24.4
	c0,0,31.2-8.1,32.5-9.5s78.6-28.5,84-29.8s21.7-12.2,33.9-10.8c0,0,13.5-10.8,28.5-8.1l-42,2.7L578.3,603.2z"/>
<polygon class="st7" points="558,609.9 572.5,642.9 660.5,611.7 667.3,594.1 644.3,590.1 598,598.2 577.9,603.6 "/>
<polygon class="st4" points="558,609.9 572.5,642.9 660.5,611.7 667.3,594.1 644.3,590.1 598,598.2 577.9,603.6 "/>
<path class="st7" d="M370.6,649.7c0,0,25.7,32.5,55.5,40.6s46.1-2.7,46.1-2.7l-9.5-37.9l-4.1-24.4L441,613.1l-35.2-16.3l-42-13.5
	c0,0-17.6-2.7-17.6,0s16.3,43.4,16.3,43.4L370.6,649.7z"/>
<path class="st0" d="M401.8,667.3c0,0,5.4,39.3,12.2,42s27.1-2.7,32.5-5.4s23.8-15.2,23.8-15.2S405.8,664.6,401.8,667.3z"/>
<polygon class="st6" points="525.1,671.3 550.8,675.4 548.1,706.6 512.2,697.9 "/>
<path class="st0" d="M541.2,680c0,0-12.1,14.4,0.1,22.5l8.1,6.8c0,0,27.1,5.4,29.8,8.1s13.5-4.1,13.5-4.1s1.4-40.6,0-43.4
	s-17.6-5.4-19-2.7s-17.6,6.8-27.1,4.1L541.2,680z"/>
<path class="st7" d="M432.9,607.7c0,0-94.8-55.5-109.7-35.2s-31.2,48.8,12.2,70.4s178.8,66.4,178.8,66.4s20.3-31.2,20.3-39.3
	c0,0-71.8-32.5-84-35.2s-61-33.9-67.7-36.6s-16.3-10.8-16.3-10.8L432.9,607.7z"/>
<path class="st2" d="M405.8,439.7l-5.4,4.1c0,0-12.2,31.2-13.5,48.8s-17.6,71.8-16.3,78.6s2.7,12.2,10.8,19c0,0,10.8-24.4,29.8-20.3
	l23-84L405.8,439.7z"/>
<path class="st2" d="M595.5,439.7l10.8,12.2c0,0,6.8,16.3,6.8,20.3s13.5,63.7,14.9,66.4s6.8,36.6,0,44.7s-19,13.5-19,13.5
	s8.1-28.5-17.6-29.8l2.7-10.8l-24.4-81.3L595.5,439.7z"/>
<path class="st1" d="M408.5,533v71.4c0,9.4,7.5,17,16.9,17.2l149.2,2.2c9.3,0.1,17-7.2,17.4-16.5l2.7-71.4c0.4-9.5-7-17.4-16.5-17.8
	c-0.1,0-0.3,0-0.4,0l-152-2.2c-9.5-0.1-17.3,7.4-17.4,16.9C408.5,532.8,408.5,532.9,408.5,533z"/>
<ellipse class="st5" cx="508" cy="342" rx="46.7" ry="25.1"/>
<circle class="st0" cx="500" cy="570.4" r="10.8"/>
</svg>
